<?xml version="1.0" ?><!DOCTYPE svg  PUBLIC '-//W3C//DTD SVG 1.1//EN'  'http://www.w3.org/Graphics/SVG/1.1/DTD/svg11.dtd'><svg enable-background="new 0 0 48 48" height="48px" version="1.1" viewBox="0 0 48 48" width="48px" xml:space="preserve" xmlns="http://www.w3.org/2000/svg" xmlns:xlink="http://www.w3.org/1999/xlink"><g id="Layer_3"><g><circle cx="24" cy="31.579" fill="#241F20" r="2.526"/><path d="M24,24c-4.187,0-7.579,3.393-7.579,7.579c0,4.184,3.392,7.579,7.579,7.579c4.183,0,7.58-3.396,7.58-7.579    C31.58,27.393,28.184,24,24,24z M24,36.644c-2.798,0-5.066-2.267-5.066-5.064s2.269-5.065,5.066-5.065    c2.798,0,5.066,2.268,5.066,5.065S26.799,36.644,24,36.644z" fill="#241F20"/><circle cx="24" cy="11.368" fill="#241F20" r="3.789"/><path d="M8.842,0v48h30.316V0H8.842z M24,5.053c3.488,0,6.316,2.828,6.316,6.316S27.488,17.684,24,17.684    c-3.489,0-6.316-2.827-6.316-6.315S20.512,5.053,24,5.053z M24,41.685c-5.582,0-10.105-4.525-10.105-10.105    c0-5.581,4.523-10.105,10.105-10.105c5.58,0,10.105,4.524,10.105,10.105C34.105,37.159,29.58,41.685,24,41.685z" fill="#241F20"/></g></g></svg>